<svg xmlns="http://www.w3.org/2000/svg" viewBox="0 0 256 256" fill="none">
  <rect width="256" height="256" rx="64" fill="#0B0B0B"/>
  <path d="M165.03 58H119.74C91.07 58 72 77.38 72 108.17V147.83C72 178.62 91.07 198 119.74 198H140.57C171.13 198 190 178.48 190 147.14V140.37C190 112.76 173.14 95.84 146.46 95.84H117.11V117.06H145.2C159.22 117.06 166.91 125.1 166.91 139.11V146.76C166.91 162.42 157.68 172.39 142.65 172.39H120.98C105.04 172.39 95.09 162.42 95.09 146.76V108.81C95.09 93.16 105.04 83.6 120.98 83.6H165.03V58Z" fill="#39FF14"/>
  <path d="M144.65 117.06H117.11V95.84H144.65C145.33 95.84 145.89 96.39 145.89 97.07V115.83C145.89 116.51 145.33 117.06 144.65 117.06Z" fill="#7DFF5A"/>
</svg>
